<svg width="227" height="79" viewBox="0 0 227 79" fill="none" xmlns="http://www.w3.org/2000/svg">
<rect width="227" height="78.2115" rx="11.3077" fill="#1C1B1E"/>
<path d="M67.72 49.1556C67.0533 51.2925 66.002 53.4294 64.566 55.5662C62.3607 58.9169 60.164 60.5922 57.9759 60.5922C57.1382 60.5922 55.9415 60.3187 54.3859 59.7716C52.9157 59.2246 51.6251 58.9511 50.5139 58.9511C49.4711 58.9511 48.2573 59.2331 46.8726 59.7973C45.488 60.3785 44.3597 60.6691 43.4878 60.6691C40.8894 60.6691 38.3166 58.4553 35.7694 54.0277C33.2565 49.5659 32 45.2665 32 41.1295C32 37.2319 32.9659 34.0351 34.8976 31.5392C36.8293 29.0776 39.2568 27.8467 42.1801 27.8467C43.4109 27.8467 44.9238 28.1031 46.7188 28.616C48.4967 29.1288 49.6762 29.3853 50.2575 29.3853C51.0267 29.3853 52.249 29.0947 53.9243 28.5134C55.668 27.9322 57.1467 27.6416 58.3605 27.6416C60.3948 27.6416 62.2154 28.1972 63.8223 29.3083C64.7113 29.9238 65.6002 30.7785 66.4892 31.8726C65.1387 33.018 64.1642 34.0266 63.5659 34.8984C62.4547 36.5053 61.8992 38.2747 61.8992 40.2064C61.8992 42.3262 62.4889 44.2323 63.6685 45.9247C64.848 47.6171 66.1985 48.6941 67.72 49.1556ZM58.0784 19.077C58.0784 20.1198 57.8305 21.2822 57.3348 22.5644C56.8219 23.8465 56.027 25.026 54.95 26.103C54.0269 27.0262 53.1038 27.6416 52.1806 27.9493C51.5481 28.1373 50.6592 28.2826 49.5138 28.3852C49.5651 25.8381 50.2318 23.6413 51.5139 21.7951C52.779 19.9659 54.9158 18.7009 57.9246 18C57.9417 18.0513 57.963 18.1453 57.9887 18.2821C58.0143 18.4188 58.0357 18.5128 58.0528 18.5641C58.0528 18.6325 58.0571 18.718 58.0656 18.8206C58.0741 18.9231 58.0784 19.0086 58.0784 19.077Z" fill="white"/>
<path d="M88.6016 33H85.9084V24.2727H88.7209C89.5675 24.2727 90.2919 24.4474 90.8942 24.7969C91.4964 25.1435 91.9581 25.642 92.2791 26.2926C92.6001 26.9403 92.7607 27.7159 92.7607 28.6193C92.7607 29.5284 92.5987 30.3111 92.2749 30.9673C91.951 31.6207 91.4794 32.1236 90.8601 32.4759C90.2408 32.8253 89.4879 33 88.6016 33ZM86.9652 32.0625H88.5334C89.255 32.0625 89.853 31.9233 90.3274 31.6449C90.8018 31.3665 91.1555 30.9702 91.3885 30.456C91.6214 29.9418 91.7379 29.3295 91.7379 28.6193C91.7379 27.9148 91.6229 27.3082 91.3928 26.7997C91.1626 26.2884 90.8189 25.8963 90.3615 25.6236C89.9041 25.348 89.3345 25.2102 88.6527 25.2102H86.9652V32.0625ZM97.0561 33.1364C96.4652 33.1364 95.9467 32.9957 95.5007 32.7145C95.0575 32.4332 94.7109 32.0398 94.4609 31.5341C94.2138 31.0284 94.0902 30.4375 94.0902 29.7614C94.0902 29.0795 94.2138 28.4844 94.4609 27.9759C94.7109 27.4673 95.0575 27.0724 95.5007 26.7912C95.9467 26.5099 96.4652 26.3693 97.0561 26.3693C97.647 26.3693 98.1641 26.5099 98.6072 26.7912C99.0533 27.0724 99.3999 27.4673 99.647 27.9759C99.897 28.4844 100.022 29.0795 100.022 29.7614C100.022 30.4375 99.897 31.0284 99.647 31.5341C99.3999 32.0398 99.0533 32.4332 98.6072 32.7145C98.1641 32.9957 97.647 33.1364 97.0561 33.1364ZM97.0561 32.233C97.505 32.233 97.8743 32.1179 98.1641 31.8878C98.4538 31.6577 98.6683 31.3551 98.8075 30.9801C98.9467 30.6051 99.0163 30.1989 99.0163 29.7614C99.0163 29.3239 98.9467 28.9162 98.8075 28.5384C98.6683 28.1605 98.4538 27.8551 98.1641 27.6222C97.8743 27.3892 97.505 27.2727 97.0561 27.2727C96.6072 27.2727 96.2379 27.3892 95.9482 27.6222C95.6584 27.8551 95.4439 28.1605 95.3047 28.5384C95.1655 28.9162 95.0959 29.3239 95.0959 29.7614C95.0959 30.1989 95.1655 30.6051 95.3047 30.9801C95.4439 31.3551 95.6584 31.6577 95.9482 31.8878C96.2379 32.1179 96.6072 32.233 97.0561 32.233ZM102.817 33L100.823 26.4545H101.88L103.295 31.4659H103.363L104.761 26.4545H105.835L107.215 31.4489H107.283L108.698 26.4545H109.755L107.761 33H106.772L105.34 27.9716H105.238L103.806 33H102.817ZM112.09 29.0625V33H111.085V26.4545H112.056V27.4773H112.141C112.295 27.1449 112.528 26.8778 112.84 26.6761C113.153 26.4716 113.556 26.3693 114.05 26.3693C114.494 26.3693 114.881 26.4602 115.214 26.642C115.546 26.821 115.805 27.0938 115.989 27.4602C116.174 27.8239 116.266 28.2841 116.266 28.8409V33H115.261V28.9091C115.261 28.3949 115.127 27.9943 114.86 27.7074C114.593 27.4176 114.227 27.2727 113.761 27.2727C113.44 27.2727 113.153 27.3423 112.9 27.4815C112.65 27.6207 112.452 27.8239 112.308 28.0909C112.163 28.358 112.09 28.6818 112.09 29.0625ZM119.11 24.2727V33H118.104V24.2727H119.11ZM123.611 33.1364C123.02 33.1364 122.501 32.9957 122.055 32.7145C121.612 32.4332 121.266 32.0398 121.016 31.5341C120.768 31.0284 120.645 30.4375 120.645 29.7614C120.645 29.0795 120.768 28.4844 121.016 27.9759C121.266 27.4673 121.612 27.0724 122.055 26.7912C122.501 26.5099 123.02 26.3693 123.611 26.3693C124.202 26.3693 124.719 26.5099 125.162 26.7912C125.608 27.0724 125.955 27.4673 126.202 27.9759C126.452 28.4844 126.577 29.0795 126.577 29.7614C126.577 30.4375 126.452 31.0284 126.202 31.5341C125.955 32.0398 125.608 32.4332 125.162 32.7145C124.719 32.9957 124.202 33.1364 123.611 33.1364ZM123.611 32.233C124.06 32.233 124.429 32.1179 124.719 31.8878C125.009 31.6577 125.223 31.3551 125.362 30.9801C125.501 30.6051 125.571 30.1989 125.571 29.7614C125.571 29.3239 125.501 28.9162 125.362 28.5384C125.223 28.1605 125.009 27.8551 124.719 27.6222C124.429 27.3892 124.06 27.2727 123.611 27.2727C123.162 27.2727 122.793 27.3892 122.503 27.6222C122.213 27.8551 121.999 28.1605 121.859 28.5384C121.72 28.9162 121.651 29.3239 121.651 29.7614C121.651 30.1989 121.72 30.6051 121.859 30.9801C121.999 31.3551 122.213 31.6577 122.503 31.8878C122.793 32.1179 123.162 32.233 123.611 32.233ZM130.038 33.1534C129.623 33.1534 129.247 33.0753 128.909 32.919C128.571 32.7599 128.302 32.5312 128.103 32.233C127.904 31.9318 127.805 31.5682 127.805 31.142C127.805 30.767 127.879 30.4631 128.027 30.2301C128.174 29.9943 128.372 29.8097 128.619 29.6761C128.866 29.5426 129.139 29.4432 129.437 29.3778C129.738 29.3097 130.041 29.2557 130.345 29.2159C130.743 29.1648 131.065 29.1264 131.312 29.1009C131.562 29.0724 131.744 29.0256 131.858 28.9602C131.974 28.8949 132.032 28.7812 132.032 28.6193V28.5852C132.032 28.1648 131.917 27.8381 131.687 27.6051C131.46 27.3722 131.115 27.2557 130.652 27.2557C130.172 27.2557 129.795 27.3608 129.522 27.571C129.25 27.7812 129.058 28.0057 128.947 28.2443L127.993 27.9034C128.163 27.5057 128.39 27.196 128.674 26.9744C128.961 26.75 129.274 26.5937 129.612 26.5057C129.953 26.4148 130.288 26.3693 130.618 26.3693C130.828 26.3693 131.069 26.3949 131.342 26.446C131.618 26.4943 131.883 26.5952 132.139 26.7486C132.397 26.902 132.612 27.1335 132.782 27.4432C132.953 27.7528 133.038 28.1676 133.038 28.6875V33H132.032V32.1136H131.981C131.913 32.2557 131.799 32.4077 131.64 32.5696C131.481 32.7315 131.27 32.8693 131.005 32.983C130.741 33.0966 130.419 33.1534 130.038 33.1534ZM130.191 32.25C130.589 32.25 130.924 32.1719 131.197 32.0156C131.473 31.8594 131.68 31.6577 131.819 31.4105C131.961 31.1634 132.032 30.9034 132.032 30.6307V29.7102C131.99 29.7614 131.896 29.8082 131.751 29.8509C131.609 29.8906 131.444 29.9261 131.257 29.9574C131.072 29.9858 130.892 30.0114 130.716 30.0341C130.542 30.054 130.402 30.071 130.294 30.0852C130.032 30.1193 129.788 30.1747 129.561 30.2514C129.336 30.3253 129.154 30.4375 129.015 30.5881C128.879 30.7358 128.811 30.9375 128.811 31.1932C128.811 31.5426 128.94 31.8068 129.199 31.9858C129.46 32.1619 129.791 32.25 130.191 32.25ZM137.345 33.1364C136.8 33.1364 136.318 32.9986 135.901 32.723C135.483 32.4446 135.156 32.0526 134.92 31.5469C134.685 31.0384 134.567 30.4375 134.567 29.7443C134.567 29.0568 134.685 28.4602 134.92 27.9545C135.156 27.4489 135.484 27.0582 135.905 26.7827C136.325 26.5071 136.811 26.3693 137.362 26.3693C137.788 26.3693 138.125 26.4403 138.372 26.5824C138.622 26.7216 138.813 26.8807 138.943 27.0597C139.077 27.2358 139.18 27.3807 139.254 27.4943H139.339V24.2727H140.345V33H139.374V31.9943H139.254C139.18 32.1136 139.075 32.2642 138.939 32.446C138.803 32.625 138.608 32.7855 138.355 32.9276C138.102 33.0668 137.766 33.1364 137.345 33.1364ZM137.482 32.233C137.885 32.233 138.226 32.1278 138.504 31.9176C138.783 31.7045 138.994 31.4105 139.139 31.0355C139.284 30.6577 139.357 30.2216 139.357 29.7273C139.357 29.2386 139.286 28.8111 139.143 28.4446C139.001 28.0753 138.791 27.7884 138.513 27.5838C138.234 27.3764 137.891 27.2727 137.482 27.2727C137.055 27.2727 136.7 27.3821 136.416 27.6009C136.135 27.8168 135.923 28.1108 135.781 28.483C135.642 28.8523 135.572 29.267 135.572 29.7273C135.572 30.1932 135.643 30.6165 135.786 30.9972C135.93 31.375 136.143 31.6761 136.425 31.9006C136.709 32.1222 137.061 32.233 137.482 32.233ZM148.361 33.1364C147.77 33.1364 147.251 32.9957 146.805 32.7145C146.362 32.4332 146.016 32.0398 145.766 31.5341C145.518 31.0284 145.395 30.4375 145.395 29.7614C145.395 29.0795 145.518 28.4844 145.766 27.9759C146.016 27.4673 146.362 27.0724 146.805 26.7912C147.251 26.5099 147.77 26.3693 148.361 26.3693C148.952 26.3693 149.469 26.5099 149.912 26.7912C150.358 27.0724 150.705 27.4673 150.952 27.9759C151.202 28.4844 151.327 29.0795 151.327 29.7614C151.327 30.4375 151.202 31.0284 150.952 31.5341C150.705 32.0398 150.358 32.4332 149.912 32.7145C149.469 32.9957 148.952 33.1364 148.361 33.1364ZM148.361 32.233C148.81 32.233 149.179 32.1179 149.469 31.8878C149.759 31.6577 149.973 31.3551 150.112 30.9801C150.251 30.6051 150.321 30.1989 150.321 29.7614C150.321 29.3239 150.251 28.9162 150.112 28.5384C149.973 28.1605 149.759 27.8551 149.469 27.6222C149.179 27.3892 148.81 27.2727 148.361 27.2727C147.912 27.2727 147.543 27.3892 147.253 27.6222C146.963 27.8551 146.749 28.1605 146.609 28.5384C146.47 28.9162 146.401 29.3239 146.401 29.7614C146.401 30.1989 146.47 30.6051 146.609 30.9801C146.749 31.3551 146.963 31.6577 147.253 31.8878C147.543 32.1179 147.912 32.233 148.361 32.233ZM153.868 29.0625V33H152.862V26.4545H153.833V27.4773H153.919C154.072 27.1449 154.305 26.8778 154.618 26.6761C154.93 26.4716 155.333 26.3693 155.828 26.3693C156.271 26.3693 156.659 26.4602 156.991 26.642C157.324 26.821 157.582 27.0938 157.767 27.4602C157.951 27.8239 158.044 28.2841 158.044 28.8409V33H157.038V28.9091C157.038 28.3949 156.904 27.9943 156.637 27.7074C156.37 27.4176 156.004 27.2727 155.538 27.2727C155.217 27.2727 154.93 27.3423 154.677 27.4815C154.427 27.6207 154.23 27.8239 154.085 28.0909C153.94 28.358 153.868 28.6818 153.868 29.0625ZM166.103 26.4545V27.3068H162.711V26.4545H166.103ZM163.7 24.8864H164.705V31.125C164.705 31.4091 164.746 31.6222 164.829 31.7642C164.914 31.9034 165.022 31.9972 165.153 32.0455C165.286 32.0909 165.427 32.1136 165.575 32.1136C165.685 32.1136 165.776 32.108 165.847 32.0966C165.918 32.0824 165.975 32.071 166.018 32.0625L166.222 32.9659C166.154 32.9915 166.059 33.017 165.937 33.0426C165.815 33.071 165.66 33.0852 165.472 33.0852C165.188 33.0852 164.91 33.0241 164.637 32.902C164.367 32.7798 164.143 32.5938 163.964 32.3438C163.788 32.0938 163.7 31.7784 163.7 31.3977V24.8864ZM168.762 29.0625V33H167.756V24.2727H168.762V27.4773H168.847C169.001 27.1392 169.231 26.8707 169.538 26.6719C169.847 26.4702 170.259 26.3693 170.773 26.3693C171.219 26.3693 171.61 26.4588 171.945 26.6378C172.281 26.8139 172.54 27.0852 172.725 27.4517C172.913 27.8153 173.006 28.2784 173.006 28.8409V33H172.001V28.9091C172.001 28.3892 171.866 27.9872 171.596 27.7031C171.329 27.4162 170.958 27.2727 170.484 27.2727C170.154 27.2727 169.859 27.3423 169.597 27.4815C169.339 27.6207 169.134 27.8239 168.984 28.0909C168.836 28.358 168.762 28.6818 168.762 29.0625ZM177.591 33.1364C176.96 33.1364 176.416 32.9972 175.958 32.7188C175.504 32.4375 175.153 32.0455 174.906 31.5426C174.662 31.0369 174.539 30.4489 174.539 29.7784C174.539 29.108 174.662 28.517 174.906 28.0057C175.153 27.4915 175.497 27.0909 175.937 26.804C176.38 26.5142 176.897 26.3693 177.488 26.3693C177.829 26.3693 178.166 26.4261 178.498 26.5398C178.831 26.6534 179.133 26.8381 179.406 27.0938C179.679 27.3466 179.896 27.6818 180.058 28.0994C180.22 28.517 180.301 29.0312 180.301 29.642V30.0682H175.255V29.1989H179.278C179.278 28.8295 179.204 28.5 179.056 28.2102C178.912 27.9205 178.704 27.6918 178.434 27.5241C178.167 27.3565 177.852 27.2727 177.488 27.2727C177.088 27.2727 176.741 27.3722 176.449 27.571C176.159 27.767 175.936 28.0227 175.779 28.3381C175.623 28.6534 175.545 28.9915 175.545 29.3523V29.9318C175.545 30.4261 175.63 30.8452 175.801 31.1889C175.974 31.5298 176.214 31.7898 176.521 31.9688C176.828 32.1449 177.184 32.233 177.591 32.233C177.855 32.233 178.093 32.196 178.306 32.1222C178.522 32.0455 178.708 31.9318 178.865 31.7812C179.021 31.6278 179.142 31.4375 179.227 31.2102L180.199 31.483C180.096 31.8125 179.924 32.1023 179.683 32.3523C179.441 32.5994 179.143 32.7926 178.788 32.9318C178.433 33.0682 178.034 33.1364 177.591 33.1364Z" fill="white"/>
<path d="M87.2095 56H85.3629L90.7038 41.4545H92.522L97.8629 56H96.0163L91.6697 43.7557H91.5561L87.2095 56ZM87.8913 50.3182H95.3345V51.8807H87.8913V50.3182ZM99.9013 60.0909V45.0909H101.521V46.8239H101.719C101.843 46.6345 102.013 46.393 102.231 46.0994C102.453 45.8011 102.771 45.536 103.183 45.304C103.599 45.0672 104.163 44.9489 104.873 44.9489C105.791 44.9489 106.601 45.1785 107.302 45.6378C108.003 46.0971 108.549 46.7481 108.942 47.5909C109.335 48.4337 109.532 49.428 109.532 50.5739C109.532 51.7292 109.335 52.7306 108.942 53.5781C108.549 54.4209 108.005 55.0743 107.309 55.5384C106.613 55.9976 105.81 56.2273 104.901 56.2273C104.201 56.2273 103.639 56.1113 103.218 55.8793C102.797 55.6425 102.472 55.375 102.245 55.0767C102.018 54.7737 101.843 54.5227 101.719 54.3239H101.577V60.0909H99.9013ZM101.549 50.5455C101.549 51.3693 101.67 52.0961 101.911 52.7259C102.153 53.3509 102.505 53.8409 102.969 54.196C103.433 54.5464 104.002 54.7216 104.674 54.7216C105.375 54.7216 105.96 54.5369 106.428 54.1676C106.902 53.7936 107.257 53.2917 107.494 52.6619C107.735 52.0275 107.856 51.322 107.856 50.5455C107.856 49.7784 107.737 49.0871 107.501 48.4716C107.269 47.8513 106.916 47.3613 106.442 47.0014C105.974 46.6368 105.384 46.4545 104.674 46.4545C103.992 46.4545 103.419 46.6274 102.955 46.973C102.491 47.3139 102.141 47.7921 101.904 48.4077C101.667 49.0185 101.549 49.7311 101.549 50.5455ZM112.089 60.0909V45.0909H113.708V46.8239H113.907C114.03 46.6345 114.201 46.393 114.418 46.0994C114.641 45.8011 114.958 45.536 115.37 45.304C115.787 45.0672 116.35 44.9489 117.06 44.9489C117.979 44.9489 118.789 45.1785 119.489 45.6378C120.19 46.0971 120.737 46.7481 121.13 47.5909C121.523 48.4337 121.719 49.428 121.719 50.5739C121.719 51.7292 121.523 52.7306 121.13 53.5781C120.737 54.4209 120.192 55.0743 119.496 55.5384C118.8 55.9976 117.998 56.2273 117.089 56.2273C116.388 56.2273 115.827 56.1113 115.406 55.8793C114.984 55.6425 114.66 55.375 114.433 55.0767C114.205 54.7737 114.03 54.5227 113.907 54.3239H113.765V60.0909H112.089ZM113.737 50.5455C113.737 51.3693 113.857 52.0961 114.099 52.7259C114.34 53.3509 114.693 53.8409 115.157 54.196C115.621 54.5464 116.189 54.7216 116.862 54.7216C117.562 54.7216 118.147 54.5369 118.616 54.1676C119.089 53.7936 119.444 53.2917 119.681 52.6619C119.923 52.0275 120.043 51.322 120.043 50.5455C120.043 49.7784 119.925 49.0871 119.688 48.4716C119.456 47.8513 119.103 47.3613 118.63 47.0014C118.161 46.6368 117.572 46.4545 116.862 46.4545C116.18 46.4545 115.607 46.6274 115.143 46.973C114.679 47.3139 114.328 47.7921 114.092 48.4077C113.855 49.0185 113.737 49.7311 113.737 50.5455ZM125.952 41.4545V56H124.276V41.4545H125.952ZM133.596 56.2273C132.545 56.2273 131.638 55.9953 130.876 55.5312C130.118 55.0625 129.534 54.4091 129.122 53.571C128.715 52.7282 128.511 51.7481 128.511 50.6307C128.511 49.5133 128.715 48.5284 129.122 47.6761C129.534 46.8191 130.107 46.1515 130.841 45.6733C131.579 45.1903 132.441 44.9489 133.426 44.9489C133.994 44.9489 134.555 45.0436 135.109 45.233C135.663 45.4223 136.167 45.7301 136.622 46.1562C137.076 46.5777 137.439 47.1364 137.708 47.8324C137.978 48.5284 138.113 49.3854 138.113 50.4034V51.1136H129.704V49.6648H136.409C136.409 49.0492 136.286 48.5 136.039 48.017C135.798 47.5341 135.452 47.1529 135.002 46.8736C134.557 46.5942 134.032 46.4545 133.426 46.4545C132.758 46.4545 132.181 46.6203 131.693 46.9517C131.21 47.2784 130.838 47.7045 130.578 48.2301C130.317 48.7557 130.187 49.3191 130.187 49.9205V50.8864C130.187 51.7102 130.329 52.4086 130.613 52.9815C130.902 53.5497 131.302 53.983 131.814 54.2812C132.325 54.5748 132.919 54.7216 133.596 54.7216C134.037 54.7216 134.434 54.66 134.789 54.5369C135.149 54.4091 135.459 54.2197 135.72 53.9688C135.98 53.7131 136.181 53.3958 136.324 53.017L137.943 53.4716C137.772 54.0208 137.486 54.5038 137.083 54.9205C136.681 55.3324 136.184 55.6544 135.592 55.8864C135 56.1136 134.335 56.2273 133.596 56.2273ZM154.47 45.0909C154.385 44.3712 154.039 43.8125 153.433 43.4148C152.827 43.017 152.083 42.8182 151.203 42.8182C150.559 42.8182 149.995 42.9223 149.512 43.1307C149.034 43.339 148.66 43.6255 148.39 43.9901C148.125 44.3546 147.993 44.7689 147.993 45.233C147.993 45.6212 148.085 45.955 148.27 46.2344C148.459 46.509 148.7 46.7386 148.994 46.9233C149.288 47.1032 149.595 47.2524 149.917 47.3707C150.239 47.4844 150.535 47.5767 150.805 47.6477L152.282 48.0455C152.661 48.1449 153.083 48.2822 153.547 48.4574C154.015 48.6326 154.463 48.8717 154.889 49.1747C155.32 49.473 155.675 49.8565 155.954 50.3253C156.234 50.794 156.373 51.3693 156.373 52.0511C156.373 52.8371 156.167 53.5473 155.755 54.1818C155.348 54.8163 154.752 55.3205 153.966 55.6946C153.184 56.0687 152.235 56.2557 151.118 56.2557C150.076 56.2557 149.174 56.0876 148.412 55.7514C147.654 55.4152 147.057 54.9465 146.622 54.3452C146.191 53.7438 145.947 53.0455 145.89 52.25H147.708C147.756 52.7992 147.94 53.2538 148.262 53.6136C148.589 53.9687 149.001 54.2339 149.498 54.4091C150 54.5795 150.54 54.6648 151.118 54.6648C151.79 54.6648 152.394 54.5559 152.929 54.3381C153.464 54.1155 153.887 53.8078 154.2 53.4148C154.512 53.017 154.669 52.553 154.669 52.0227C154.669 51.5398 154.534 51.1468 154.264 50.8438C153.994 50.5407 153.639 50.2945 153.199 50.1051C152.758 49.9157 152.282 49.75 151.771 49.608L149.981 49.0966C148.845 48.7699 147.945 48.3035 147.282 47.6974C146.619 47.0914 146.288 46.2983 146.288 45.3182C146.288 44.5038 146.508 43.7936 146.949 43.1875C147.394 42.5767 147.99 42.1032 148.738 41.767C149.491 41.4261 150.332 41.2557 151.26 41.2557C152.197 41.2557 153.03 41.4238 153.76 41.7599C154.489 42.0914 155.066 42.5459 155.493 43.1236C155.923 43.7012 156.151 44.357 156.174 45.0909H154.47ZM163.786 45.0909V46.5114H158.133V45.0909H163.786ZM159.781 42.4773H161.457V52.875C161.457 53.3485 161.525 53.7036 161.663 53.9403C161.805 54.1723 161.985 54.3286 162.202 54.4091C162.425 54.4848 162.659 54.5227 162.906 54.5227C163.09 54.5227 163.242 54.5133 163.36 54.4943C163.478 54.4706 163.573 54.4517 163.644 54.4375L163.985 55.9432C163.871 55.9858 163.713 56.0284 163.509 56.071C163.306 56.1184 163.048 56.142 162.735 56.142C162.262 56.142 161.798 56.0402 161.343 55.8366C160.893 55.633 160.519 55.3229 160.221 54.9062C159.927 54.4896 159.781 53.964 159.781 53.3295V42.4773ZM170.622 56.2273C169.637 56.2273 168.773 55.9929 168.03 55.5241C167.291 55.0554 166.714 54.3996 166.297 53.5568C165.885 52.714 165.679 51.7292 165.679 50.6023C165.679 49.4659 165.885 48.474 166.297 47.6264C166.714 46.7789 167.291 46.1207 168.03 45.652C168.773 45.1832 169.637 44.9489 170.622 44.9489C171.607 44.9489 172.469 45.1832 173.207 45.652C173.951 46.1207 174.528 46.7789 174.94 47.6264C175.357 48.474 175.565 49.4659 175.565 50.6023C175.565 51.7292 175.357 52.714 174.94 53.5568C174.528 54.3996 173.951 55.0554 173.207 55.5241C172.469 55.9929 171.607 56.2273 170.622 56.2273ZM170.622 54.7216C171.37 54.7216 171.986 54.5298 172.469 54.1463C172.952 53.7628 173.309 53.2585 173.541 52.6335C173.773 52.0085 173.889 51.3314 173.889 50.6023C173.889 49.8731 173.773 49.1937 173.541 48.5639C173.309 47.9342 172.952 47.4252 172.469 47.0369C171.986 46.6487 171.37 46.4545 170.622 46.4545C169.874 46.4545 169.259 46.6487 168.776 47.0369C168.293 47.4252 167.935 47.9342 167.703 48.5639C167.471 49.1937 167.355 49.8731 167.355 50.6023C167.355 51.3314 167.471 52.0085 167.703 52.6335C167.935 53.2585 168.293 53.7628 168.776 54.1463C169.259 54.5298 169.874 54.7216 170.622 54.7216ZM178.124 56V45.0909H179.743V46.7386H179.857C180.056 46.1989 180.416 45.7609 180.936 45.4247C181.457 45.0885 182.044 44.9205 182.698 44.9205C182.821 44.9205 182.975 44.9228 183.159 44.9276C183.344 44.9323 183.484 44.9394 183.578 44.9489V46.6534C183.522 46.6392 183.391 46.6179 183.188 46.5895C182.989 46.5563 182.778 46.5398 182.556 46.5398C182.025 46.5398 181.552 46.651 181.135 46.8736C180.723 47.0914 180.397 47.3944 180.155 47.7827C179.918 48.1662 179.8 48.6042 179.8 49.0966V56H178.124ZM189.807 56.2273C188.756 56.2273 187.849 55.9953 187.087 55.5312C186.329 55.0625 185.745 54.4091 185.333 53.571C184.926 52.7282 184.722 51.7481 184.722 50.6307C184.722 49.5133 184.926 48.5284 185.333 47.6761C185.745 46.8191 186.318 46.1515 187.051 45.6733C187.79 45.1903 188.652 44.9489 189.637 44.9489C190.205 44.9489 190.766 45.0436 191.32 45.233C191.874 45.4223 192.378 45.7301 192.833 46.1562C193.287 46.5777 193.65 47.1364 193.919 47.8324C194.189 48.5284 194.324 49.3854 194.324 50.4034V51.1136H185.915V49.6648H192.62C192.62 49.0492 192.497 48.5 192.25 48.017C192.009 47.5341 191.663 47.1529 191.213 46.8736C190.768 46.5942 190.243 46.4545 189.637 46.4545C188.969 46.4545 188.391 46.6203 187.904 46.9517C187.421 47.2784 187.049 47.7045 186.789 48.2301C186.528 48.7557 186.398 49.3191 186.398 49.9205V50.8864C186.398 51.7102 186.54 52.4086 186.824 52.9815C187.113 53.5497 187.513 53.983 188.025 54.2812C188.536 54.5748 189.13 54.7216 189.807 54.7216C190.248 54.7216 190.645 54.66 191 54.5369C191.36 54.4091 191.67 54.2197 191.931 53.9688C192.191 53.7131 192.392 53.3958 192.534 53.017L194.154 53.4716C193.983 54.0208 193.697 54.5038 193.294 54.9205C192.892 55.3324 192.395 55.6544 191.803 55.8864C191.211 56.1136 190.546 56.2273 189.807 56.2273Z" fill="white"/>
</svg>
