<?xml version="1.0" standalone="no"?>
<!DOCTYPE svg PUBLIC "-//W3C//DTD SVG 20010904//EN"
 "http://www.w3.org/TR/2001/REC-SVG-20010904/DTD/svg10.dtd">
<svg version="1.0" xmlns="http://www.w3.org/2000/svg"
 width="4000.000000pt" height="2038.000000pt" viewBox="0 0 4000.000000 2038.000000"
 preserveAspectRatio="xMidYMid meet">

<g transform="translate(0.000000,2038.000000) scale(0.100000,-0.100000)"
fill="#000000" stroke="none">
<path d="M0 10190 l0 -10190 20000 0 20000 0 0 10190 0 10190 -20000 0 -20000
0 0 -10190z m16878 5213 l2 -263 -2940 0 -2940 0 0 265 0 265 2938 -2 2937 -3
3 -262z m2 -894 l0 -259 -2940 0 -2940 0 0 260 0 260 2933 2 c1612 2 2935 2
2940 0 4 -2 7 -120 7 -263z m0 -889 l0 -260 -2940 0 -2940 0 0 260 0 260 2940
0 2940 0 0 -260z m-1472 -892 l-3 -263 -2202 -3 -2203 -2 0 265 0 265 2205 0
2205 0 -2 -262z m2707 -613 c140 -38 276 -129 343 -230 l29 -44 42 49 c82 98
207 176 351 222 64 20 95 23 215 22 161 0 240 -16 350 -69 210 -102 324 -290
355 -585 5 -52 10 -364 10 -692 l0 -598 -265 0 -265 0 0 563 c0 309 -5 595
-10 635 -27 209 -144 311 -344 300 -159 -9 -252 -90 -303 -265 -15 -51 -17
-131 -21 -645 l-3 -588 -264 0 -264 0 -3 628 c-3 622 -3 627 -25 682 -51 125
-133 181 -274 188 -120 6 -176 -13 -250 -87 -62 -62 -91 -125 -109 -233 -6
-37 -10 -290 -10 -620 l0 -558 -260 0 -260 0 0 955 0 955 261 0 260 0 -3 -95
c-2 -52 -1 -95 2 -95 3 0 25 21 50 47 84 86 195 144 331 173 62 13 262 4 334
-15z m-2705 -280 l0 -265 -2205 0 -2205 0 0 265 0 265 2205 0 2205 0 0 -265z
m5232 -320 l233 -585 16 38 c8 20 107 283 219 585 l203 547 269 0 269 0 -7
-22 c-4 -13 -247 -630 -541 -1373 -294 -742 -539 -1360 -544 -1372 l-9 -23
-261 0 c-205 0 -260 3 -256 13 3 6 91 224 195 483 l189 471 -373 899 c-206
494 -376 905 -379 912 -3 9 54 12 269 12 l274 0 234 -585z m-6712 -570 l0
-265 -1465 0 -1465 0 0 265 0 265 1465 0 1465 0 0 -265z m0 -890 l0 -265
-1465 0 -1465 0 0 265 0 265 1465 0 1465 0 0 -265z m4540 -730 l0 -255 -520 0
-520 0 0 -315 0 -315 520 0 520 0 0 -255 0 -255 -520 0 -520 0 0 -570 0 -570
-265 0 -265 0 0 1395 0 1395 785 0 785 0 0 -255z m-4540 -160 l0 -265 -1465 0
-1465 0 0 265 0 265 1465 0 1465 0 0 -265z m7760 -160 l0 -305 178 -2 177 -3
3 -232 2 -233 -180 0 -181 0 3 -402 3 -403 25 -45 c37 -66 93 -91 223 -99
l102 -6 3 -244 2 -244 -167 6 c-427 14 -614 145 -689 482 -15 68 -19 148 -24
515 l-5 435 -162 3 -163 2 0 235 0 235 165 0 165 0 0 305 0 305 260 0 260 0 0
-305z m-1925 -296 c102 -25 224 -83 298 -143 l57 -47 0 91 0 90 263 -2 c144
-2 261 -6 260 -10 -2 -5 -3 -433 -3 -953 l0 -945 -260 0 -260 0 0 101 0 101
-57 -52 c-110 -98 -237 -155 -411 -185 -109 -19 -153 -16 -311 22 -212 51
-425 200 -546 383 -139 209 -193 487 -150 770 47 311 209 551 467 690 205 110
435 142 653 89z m3445 21 c248 -26 445 -123 618 -305 135 -142 215 -294 254
-485 28 -135 21 -337 -16 -465 -53 -178 -130 -311 -255 -436 -161 -161 -330
-243 -585 -284 -104 -17 -114 -17 -220 0 -218 34 -385 107 -531 232 -349 298
-446 810 -230 1220 157 297 442 489 775 523 41 4 80 8 85 8 6 1 53 -3 105 -8z
m2109 0 c238 -25 445 -122 607 -285 381 -384 386 -1005 10 -1393 -85 -89 -163
-146 -271 -200 -104 -52 -184 -76 -322 -97 -107 -16 -119 -16 -225 0 -186 28
-297 70 -434 160 -200 133 -350 345 -409 578 -149 593 251 1173 852 1236 43 5
81 9 84 10 4 0 52 -4 108 -9z m3501 -17 c96 -19 239 -86 312 -146 l57 -47 3
88 3 87 260 0 260 0 3 -952 2 -953 -265 0 -265 0 0 101 0 101 -61 -56 c-64
-57 -179 -122 -264 -149 -80 -25 -234 -50 -273 -44 -181 28 -256 49 -367 105
-96 48 -148 85 -229 161 -182 174 -280 403 -292 681 -16 356 115 667 358 850
226 170 484 229 758 173z m-1908 -165 l3 -151 36 54 c77 114 178 189 304 224
37 10 120 18 218 22 l157 6 0 -256 0 -255 -217 -4 c-192 -4 -224 -7 -270 -25
-75 -30 -125 -74 -161 -141 -59 -110 -62 -148 -62 -718 l0 -514 -265 0 -265 0
0 948 c0 522 3 952 7 955 3 4 120 7 259 7 l253 0 3 -152z"/>
<path d="M19534 8245 c-186 -40 -334 -188 -379 -377 -56 -237 57 -484 267
-583 306 -144 633 19 703 351 8 38 15 87 15 109 0 124 -60 275 -145 364 -118
124 -288 174 -461 136z"/>
<path d="M23021 8229 c-205 -40 -363 -230 -378 -454 -14 -207 91 -391 273
-482 77 -38 79 -38 198 -38 115 0 124 2 186 31 92 45 144 85 195 154 266 362
-42 874 -474 789z"/>
<path d="M25125 8226 c-246 -61 -405 -303 -365 -558 37 -244 232 -418 469
-418 207 0 374 121 450 324 133 357 -194 741 -554 652z"/>
<path d="M28621 8249 c-30 -5 -89 -26 -130 -46 -276 -132 -365 -498 -185 -760
103 -150 296 -233 480 -206 333 48 520 423 369 741 -97 205 -303 309 -534 271z"/>
</g>
</svg>
