<svg width="24" height="25" viewBox="0 0 24 25" fill="none" xmlns="http://www.w3.org/2000/svg">
<path d="M9.70406 4.95313L2.95406 11.7031C2.84918 11.8076 2.76597 11.9318 2.70919 12.0686C2.6524 12.2053 2.62317 12.3519 2.62317 12.5C2.62317 12.6481 2.6524 12.7947 2.70919 12.9314C2.76597 13.0682 2.84918 13.1924 2.95406 13.2969L9.70406 20.0469C9.91541 20.2582 10.2021 20.377 10.5009 20.377C10.7998 20.377 11.0865 20.2582 11.2978 20.0469C11.5092 19.8355 11.6279 19.5489 11.6279 19.25C11.6279 18.9511 11.5092 18.6645 11.2978 18.4531L6.46875 13.6241L20.25 13.6241C20.5484 13.6241 20.8345 13.5055 21.0455 13.2946C21.2565 13.0836 21.375 12.7974 21.375 12.4991C21.375 12.2007 21.2565 11.9145 21.0455 11.7036C20.8345 11.4926 20.5484 11.3741 20.25 11.3741L6.46875 11.3741L11.2987 6.545C11.5101 6.33366 11.6288 6.04701 11.6288 5.74813C11.6288 5.44924 11.5101 5.1626 11.2987 4.95125C11.0874 4.73991 10.8008 4.62117 10.5019 4.62117C10.203 4.62117 9.91634 4.73991 9.705 4.95125L9.70406 4.95313Z" fill="black"/>
</svg>
