<svg width="24" height="25" viewBox="0 0 24 25" fill="none" xmlns="http://www.w3.org/2000/svg">
<path d="M14.2959 4.95313L21.0459 11.7031C21.1508 11.8076 21.234 11.9318 21.2908 12.0686C21.3476 12.2053 21.3768 12.3519 21.3768 12.5C21.3768 12.6481 21.3476 12.7947 21.2908 12.9314C21.234 13.0682 21.1508 13.1924 21.0459 13.2969L14.2959 20.0469C14.0846 20.2582 13.7979 20.377 13.4991 20.377C13.2002 20.377 12.9135 20.2582 12.7022 20.0469C12.4908 19.8355 12.3721 19.5489 12.3721 19.25C12.3721 18.9511 12.4908 18.6645 12.7022 18.4531L17.5313 13.6241L3.75 13.6241C3.45163 13.6241 3.16548 13.5055 2.9545 13.2946C2.74353 13.0836 2.625 12.7974 2.625 12.4991C2.625 12.2007 2.74353 11.9145 2.95451 11.7036C3.16548 11.4926 3.45163 11.3741 3.75 11.3741L17.5313 11.3741L12.7013 6.545C12.4899 6.33366 12.3712 6.04701 12.3712 5.74813C12.3712 5.44924 12.4899 5.1626 12.7013 4.95125C12.9126 4.73991 13.1992 4.62117 13.4981 4.62117C13.797 4.62117 14.0837 4.73991 14.295 4.95125L14.2959 4.95313Z" fill="black"/>
</svg>
