<svg width="33" height="33" viewBox="0 0 33 33" fill="none" xmlns="http://www.w3.org/2000/svg">
<path d="M17.0662 24.5827L23.5631 28.7077C24.401 29.2362 25.4323 28.4499 25.1873 27.4831L23.3053 20.0839C23.2544 19.8788 23.2625 19.6635 23.3286 19.4628C23.3948 19.2621 23.5163 19.0842 23.6791 18.9495L29.5057 14.0897C30.2662 13.4581 29.8795 12.1819 28.8869 12.1175L21.2815 11.6276C21.074 11.6155 20.8744 11.5433 20.7073 11.4197C20.5402 11.296 20.4127 11.1264 20.3405 10.9315L17.5045 3.79012C17.4294 3.58374 17.2927 3.40547 17.1128 3.27949C16.9329 3.15351 16.7187 3.08594 16.499 3.08594C16.2794 3.08594 16.0652 3.15351 15.8853 3.27949C15.7054 3.40547 15.5686 3.58374 15.4936 3.79012L12.6576 10.9315C12.5854 11.1264 12.4579 11.296 12.2908 11.4197C12.1236 11.5433 11.9241 11.6155 11.7166 11.6276L4.11116 12.1175C3.11858 12.1819 2.73186 13.4581 3.49241 14.0897L9.31897 18.9495C9.48182 19.0842 9.60332 19.2621 9.66946 19.4628C9.7356 19.6635 9.74369 19.8788 9.6928 20.0839L7.95256 26.9417C7.65608 28.1018 8.89358 29.0429 9.88616 28.4112L15.9319 24.5827C16.1014 24.4749 16.2981 24.4176 16.499 24.4176C16.7 24.4176 16.8967 24.4749 17.0662 24.5827Z" fill="#F9E300"/>
</svg>
